<svg xmlns="http://www.w3.org/2000/svg" viewBox="0 0 24 24" fill="none" stroke="currentColor" stroke-width="2" stroke-linecap="round" stroke-linejoin="round">
  <path d="M12 3c-.3 0-.5.1-.7.3-.2.2-.3.4-.3.7 0 .3.1.5.3.7.2.2.4.3.7.3.3 0 .5-.1.7-.3.2-.2.3-.4.3-.7 0-.3-.1-.5-.3-.7-.2-.2-.4-.3-.7-.3z" />
  <path d="M12 5v1" />
  <path d="M12 6c-2 0-5 1.2-5 5 0 4.2 2 5 4 5 2.5 0 0-6 0-6" />
  <path d="M7 9c0 .8.2 1.5.6 2" />
  <path d="M16 6c1 0 2.2 0 3 2 1 2.5 0 5.9-3 8.9" />
  <path d="M8.5 21C7 21 6 20 6 19c0-1.7 1.3-3 3-3 1 0 3 2 3 2s-1.2 3-3.5 3z" />
</svg>
